<?xml version="1.0" encoding="UTF-8"?>
<svg width="80px" height="40px" viewBox="0 0 80 40" version="1.1" xmlns="http://www.w3.org/2000/svg" xmlns:xlink="http://www.w3.org/1999/xlink">
    <!-- Generator: Sketch 63.1 (92452) - https://sketch.com -->
    <title>小 icon</title>
    <desc>Created with Sketch.</desc>
    <g id="小-icon" stroke="none" stroke-width="1" fill="none" fill-rule="evenodd">
        <g id="编组-2" transform="translate(8.000000, 1.000000)">
            <g id="编组">
                <path d="M8.64,32.5780992 L8.64,28.8619008 C8.64,28.5626173 8.88261725,28.32 9.1819008,28.32 L15.7780992,28.32 C16.0773827,28.32 16.32,28.5626173 16.32,28.8619008 L16.32,32.5780992 C16.32,32.8773827 16.0773827,33.12 15.7780992,33.12 L9.1819008,33.12 C8.88261725,33.12 8.64,32.8773827 8.64,32.5780992 Z" id="Fill-521备份-23" fill="#ABBAC4" opacity="0.400000006"></path>
                <path d="M55.963296,37.3353158 C56.5253294,37.3353158 56.8190856,37.3353158 56.8445645,37.3353158 C60.5630704,37.3353158 64.5694997,34.6638099 64.5694997,30.1708831 C64.5694997,25.6779564 61.4721803,22.810732 57.7536744,22.810732 L55.3299668,22.810732 C54.4375039,22.810732 53.7141618,23.5423383 53.7141618,24.4449978 C53.7141618,25.3476572 54.4375039,26.0792635 55.3299668,26.0792635 C56.2224298,26.0792635 56.9457718,25.3476572 56.9457718,24.4449978 L56.9457718,22.2659767 C56.9457718,20.7703849 56.9457718,18.4078776 56.9457718,15.178455 L56.9457774,15.178455 C56.9457774,14.1309595 56.0966145,13.2817967 55.049119,13.2817967 C51.2710556,13.2817967 48.6101335,13.2817967 47.0663527,13.2817967 C47.0663527,11.3114454 47.0663527,9.34109412 47.0663527,7.37074284 C47.0663527,6.04622764 45.981294,4.97249591 44.6428063,4.97249591 C40.549942,4.97249591 38.4057217,4.97249591 38.2101454,4.97249591 C38.0145691,4.97249591 38.2609181,4.97249591 38.9491924,4.97249591 M36.0585144,4.97249591 L30.0126754,4.97249591 C28.6799743,4.97249591 27.5996067,6.04961845 27.5996067,7.37831643 L27.5996067,32.3826504 C27.5996067,33.5637153 28.5599335,34.5211575 29.7445566,34.5211575 L43.0765051,34.5088896 C44.0764727,34.5063015 44.886621,33.6940858 44.8882863,32.6924849 L44.8882863,8.19289252 C44.8882863,7.7439672 44.5243604,7.38004132 44.0754351,7.38004132 L30.6238477,7.38004132 C30.1749224,7.38004132 29.8109965,7.7439672 29.8109965,8.19289252 L29.8109965,28.3375996 C29.8109965,28.7865249 30.1749224,29.1504508 30.6238477,29.1504508 L41.8415453,29.1504508 C42.2904706,29.1504508 42.6543965,28.7865249 42.6543965,28.3375996 L42.6543965,25.8419779 L42.6543965,25.8419779 M56.0867328,37.3353158 L20.32128,37.3353158" id="形状备份-17" stroke="#404042"></path>
                <path d="M36.0585144,4.97249591 L30.0126754,4.97249591 C28.6799743,4.97249591 27.5996067,6.04961845 27.5996067,7.37831643 L27.5996067,32.3826504 C27.5996067,33.5637153 28.5599335,34.5211575 29.7445566,34.5211575 L43.0765051,34.5088896 C44.0764727,34.5063015 44.886621,33.6940858 44.8882863,32.6924849 L44.8882863,8.19289252 C44.8882863,7.7439672 44.5243604,7.38004132 44.0754351,7.38004132 L30.6238477,7.38004132 C30.1749224,7.38004132 29.8109965,7.7439672 29.8109965,8.19289252 L29.8109965,28.3375996 C29.8109965,28.7865249 30.1749224,29.1504508 30.6238477,29.1504508 L41.8415453,29.1504508 C42.2904706,29.1504508 42.6543965,28.7865249 42.6543965,28.3375996 L42.6543965,25.8419779 L42.6543965,25.8419779" id="形状备份-18" stroke="#C7000B"></path>
                <path d="M20.4908907,37.3353158 L14.8065578,37.2903263 C14.0625561,37.2844378 13.4625278,36.6796417 13.4625278,35.9356167 L13.4625278,34.622252 C13.4625278,34.3229684 13.7051451,34.0803512 14.0044286,34.0803512 L16.9603183,34.0803512 C17.2596018,34.0803512 17.5022191,33.8377339 17.5022191,33.5384504 L17.5022191,27.8432534 C17.5022191,27.5439699 17.2596018,27.3013526 16.9603183,27.3013526 L7.92922538,27.3013526 C7.62994183,27.3013526 7.38732458,27.5439699 7.38732458,27.8432534 L7.38732458,33.5384504 C7.38732458,33.8377339 7.62994183,34.0803512 7.92922538,34.0803512 L10.7771125,34.0803512 C11.076396,34.0803512 11.3190133,34.3229684 11.3190133,34.622252 L11.3190133,35.1414552 C11.3190133,35.4407388 11.076396,35.683356 10.7771125,35.683356 L5.4041875,35.683356 L5.4041875,35.683356 C2.41936606,35.683356 2.69530574e-14,33.255864 2.69530574e-14,30.261725 C2.69530574e-14,27.8101636 1.64453646,25.7438352 3.88721391,25.1125127 C3.91686036,25.1041671 3.96323921,25.0770495 3.96323921,25.0168075 C3.96323921,24.9766462 3.96323921,24.793791 3.96323921,24.4682418 L3.96323921,24.2560263 C3.96323921,21.3350541 6.38992859,18.9667924 8.9356631,18.9667924 C11.4813976,18.9667924 14.6439392,19.3463976 14.6439392,25.0874105 L18.8384006,25.0874105 C18.8409474,25.0874105 18.8430119,25.0894751 18.8430119,25.0920218 L18.8430119,25.0920218 L18.8430119,25.0920218 L24.120259,25.0920218 C24.6082276,25.0920218 25.0038042,24.6964452 25.0038042,24.2084766 C25.0038042,23.7205081 24.6082276,23.3249314 24.120259,23.3249314 C22.9104696,23.3249314 21.7006802,23.3249314 20.4908907,23.3249314 L14.254165,23.3249314 C14.254165,23.3249314 14.254165,23.3249314 14.254165,23.3249314 C11.1600368,23.3249314 8.65175035,20.8166449 8.65175035,17.7225167 C8.65175035,17.6933129 8.65197869,17.6641095 8.65243915,17.6349093 L8.65430691,17.5154824 C8.70486313,14.2828567 11.3414305,11.6896684 14.5744501,11.6927407 C15.6830797,11.6937949 16.5080735,11.6982258 17.0494317,11.7060335 C17.1993629,11.7060335 17.3831321,11.7060335 17.6007393,11.7060335 C17.6257879,11.7060335 18.2738933,11.7060335 19.5450557,11.7060335 C20.4615587,11.7060202 21.2045311,12.4489926 21.2045311,13.3654956 C21.2045311,14.2819912 20.4615647,15.0249577 19.545069,15.0249577 L19.5326349,15.0249577 C18.6093123,15.0249577 17.8608114,14.2764568 17.8608114,13.3531342 C17.8608114,13.3531089 17.8608114,13.3530836 17.8608147,13.3530583 C17.8608659,12.22522 17.8608915,11.6565588 17.8608915,11.6470747 C17.8608827,11.548306 17.8609021,11.4388644 17.8608915,11.3187499 C17.8608658,11.0283071 17.8608149,10.4522338 17.8607387,9.59052999 C17.8607387,9.59052999 17.8607387,9.59052999 17.8607387,9.59052999 C17.8608905,4.39115789 22.0098796,0.141841867 27.2077643,0.0174835485 C27.6953044,0.00583214412 28.0036834,0 28.1329016,0 C28.3987593,0 29.1932137,0.0246876068 30.5162647,0.0740628203 C33.7657731,0.19533046 36.7106447,2.02075745 38.2647723,4.87710089 L38.3959456,5.11818549 L38.3959456,5.11818549" id="Stroke-437备份-5" stroke="#404042"></path>
                <line x1="47.0098944" y1="24.4809247" x2="47.0098944" y2="30.1708831" id="路径-33备份-12" stroke="#404042"></line>
                <line x1="47.0098944" y1="31.5256351" x2="47.0098944" y2="33.6932383" id="路径-33备份-11" stroke="#404042"></line>
                <path d="M47.04,19.2980992 L47.04,16.5419008 C47.04,16.2426173 47.2826173,16 47.5819008,16 L53.2180992,16 C53.5173827,16 53.76,16.2426173 53.76,16.5419008 L53.76,19.2980992 C53.76,19.5973827 53.5173827,19.84 53.2180992,19.84 L47.5819008,19.84 C47.2826173,19.84 47.04,19.5973827 47.04,19.2980992 Z" id="Fill-521备份-24" fill="#ABBAC4" opacity="0.400000006"></path>
                <path d="M46.8255704,14.7033476 L54.7140674,14.7033476 C55.0246751,14.7033476 55.2766836,14.9485713 55.2766836,15.2508164 L55.2766836,19.7318348 C55.2766836,20.3964626 54.7230334,20.9352068 54.0400167,20.9352068 L52.3947566,20.9352068" id="Stroke-522备份-11" stroke="#404042" stroke-width="0.9408"></path>
                <circle id="椭圆形备份-26" stroke="#404042" cx="36.7254528" cy="31.9437343" r="1"></circle>
            </g>
            <line x1="32.5335732" y1="12.42226" x2="41.1735732" y2="12.42226" id="路径-3" stroke="#404042"></line>
            <line x1="32.5335732" y1="16.26226" x2="41.1735732" y2="16.26226" id="路径-3备份" stroke="#404042"></line>
            <line x1="32.5335732" y1="20.10226" x2="41.1735732" y2="20.10226" id="路径-3备份-3" stroke="#404042"></line>
        </g>
    </g>
</svg>