<?xml version="1.0" encoding="UTF-8"?>
<svg width="90px" height="40px" viewBox="0 0 90 40" version="1.1" xmlns="http://www.w3.org/2000/svg" xmlns:xlink="http://www.w3.org/1999/xlink">
    <!-- Generator: Sketch 51.3 (57544) - http://www.bohemiancoding.com/sketch -->
    <title>导航中英文logo</title>
    <desc>Created with Sketch.</desc>
    <defs>
        <radialGradient cx="155.074751%" cy="-8.83376428%" fx="155.074751%" fy="-8.83376428%" r="203.183746%" gradientTransform="translate(1.550748,-0.088338),scale(1.000000,0.784946),translate(-1.550748,0.088338)" id="radialGradient-1">
            <stop stop-color="#F8C797" offset="0%"></stop>
            <stop stop-color="#E6211A" offset="42.7%"></stop>
            <stop stop-color="#E4211A" offset="67.46%"></stop>
            <stop stop-color="#DD211B" offset="77.4%"></stop>
            <stop stop-color="#D1201C" offset="84.68%"></stop>
            <stop stop-color="#BF1F1E" offset="90.66%"></stop>
            <stop stop-color="#A91E20" offset="95.78%"></stop>
            <stop stop-color="#901D22" offset="100%"></stop>
        </radialGradient>
        <radialGradient cx="173.24055%" cy="-542.640801%" fx="173.24055%" fy="-542.640801%" r="686.677108%" gradientTransform="translate(1.732406,-5.426408),scale(0.341270,1.000000),translate(-1.732406,5.426408)" id="radialGradient-2">
            <stop stop-color="#F8C797" offset="0%"></stop>
            <stop stop-color="#E6211A" offset="42.7%"></stop>
            <stop stop-color="#E4211A" offset="67.46%"></stop>
            <stop stop-color="#DD211B" offset="77.4%"></stop>
            <stop stop-color="#D1201C" offset="84.68%"></stop>
            <stop stop-color="#BF1F1E" offset="90.66%"></stop>
            <stop stop-color="#A91E20" offset="95.78%"></stop>
            <stop stop-color="#901D22" offset="100%"></stop>
        </radialGradient>
        <radialGradient cx="154.594942%" cy="-122.970668%" fx="154.594942%" fy="-122.970668%" r="301.967248%" gradientTransform="translate(1.545949,-1.229707),scale(0.593939,1.000000),translate(-1.545949,1.229707)" id="radialGradient-3">
            <stop stop-color="#F8C797" offset="0%"></stop>
            <stop stop-color="#E6211A" offset="42.7%"></stop>
            <stop stop-color="#E4211A" offset="67.46%"></stop>
            <stop stop-color="#DD211B" offset="77.4%"></stop>
            <stop stop-color="#D1201C" offset="84.68%"></stop>
            <stop stop-color="#BF1F1E" offset="90.66%"></stop>
            <stop stop-color="#A91E20" offset="95.78%"></stop>
            <stop stop-color="#901D22" offset="100%"></stop>
        </radialGradient>
        <radialGradient cx="167.52514%" cy="16.1623407%" fx="167.52514%" fy="16.1623407%" r="340.876648%" gradientTransform="translate(1.675251,0.161623),scale(1.000000,0.376623),translate(-1.675251,-0.161623)" id="radialGradient-4">
            <stop stop-color="#F8C797" offset="0%"></stop>
            <stop stop-color="#E6211A" offset="42.7%"></stop>
            <stop stop-color="#E4211A" offset="67.46%"></stop>
            <stop stop-color="#DD211B" offset="77.4%"></stop>
            <stop stop-color="#D1201C" offset="84.68%"></stop>
            <stop stop-color="#BF1F1E" offset="90.66%"></stop>
            <stop stop-color="#A91E20" offset="95.78%"></stop>
            <stop stop-color="#901D22" offset="100%"></stop>
        </radialGradient>
        <radialGradient cx="53.8810666%" cy="16.6660613%" fx="53.8810666%" fy="16.6660613%" r="338.877966%" gradientTransform="translate(0.538811,0.166661),scale(1.000000,0.379913),translate(-0.538811,-0.166661)" id="radialGradient-5">
            <stop stop-color="#F8C797" offset="0%"></stop>
            <stop stop-color="#E6211A" offset="42.7%"></stop>
            <stop stop-color="#E4211A" offset="67.46%"></stop>
            <stop stop-color="#DD211B" offset="77.4%"></stop>
            <stop stop-color="#D1201C" offset="84.68%"></stop>
            <stop stop-color="#BF1F1E" offset="90.66%"></stop>
            <stop stop-color="#A91E20" offset="95.78%"></stop>
            <stop stop-color="#901D22" offset="100%"></stop>
        </radialGradient>
        <radialGradient cx="10.0796271%" cy="-528.357996%" fx="10.0796271%" fy="-528.357996%" r="692.718513%" gradientTransform="translate(0.100796,-5.283580),scale(0.341270,1.000000),translate(-0.100796,5.283580)" id="radialGradient-6">
            <stop stop-color="#F8C797" offset="0%"></stop>
            <stop stop-color="#E6211A" offset="42.7%"></stop>
            <stop stop-color="#E4211A" offset="67.46%"></stop>
            <stop stop-color="#DD211B" offset="77.4%"></stop>
            <stop stop-color="#D1201C" offset="84.68%"></stop>
            <stop stop-color="#BF1F1E" offset="90.66%"></stop>
            <stop stop-color="#A91E20" offset="95.78%"></stop>
            <stop stop-color="#901D22" offset="100%"></stop>
        </radialGradient>
        <radialGradient cx="8.89722449%" cy="-122.943513%" fx="8.89722449%" fy="-122.943513%" r="303.834462%" gradientTransform="translate(0.088972,-1.229435),scale(0.593939,1.000000),translate(-0.088972,1.229435)" id="radialGradient-7">
            <stop stop-color="#F8C797" offset="0%"></stop>
            <stop stop-color="#E6211A" offset="42.7%"></stop>
            <stop stop-color="#E4211A" offset="67.46%"></stop>
            <stop stop-color="#DD211B" offset="77.4%"></stop>
            <stop stop-color="#D1201C" offset="84.68%"></stop>
            <stop stop-color="#BF1F1E" offset="90.66%"></stop>
            <stop stop-color="#A91E20" offset="95.78%"></stop>
            <stop stop-color="#901D22" offset="100%"></stop>
        </radialGradient>
        <radialGradient cx="17.1125081%" cy="-8.84528496%" fx="17.1125081%" fy="-8.84528496%" r="203.513925%" gradientTransform="translate(0.171125,-0.088453),scale(1.000000,0.789189),translate(-0.171125,0.088453)" id="radialGradient-8">
            <stop stop-color="#F8C797" offset="0%"></stop>
            <stop stop-color="#E6211A" offset="42.7%"></stop>
            <stop stop-color="#E4211A" offset="67.46%"></stop>
            <stop stop-color="#DD211B" offset="77.4%"></stop>
            <stop stop-color="#D1201C" offset="84.68%"></stop>
            <stop stop-color="#BF1F1E" offset="90.66%"></stop>
            <stop stop-color="#A91E20" offset="95.78%"></stop>
            <stop stop-color="#901D22" offset="100%"></stop>
        </radialGradient>
        <path d="M1.8375,7.63125 C1.925,9.225 3.125,10.16875 3.125,10.16875 C5.0625,12.0499375 9.75625,14.4249375 10.84375,14.9625625 C10.85625,14.96875 10.9125,14.9874375 10.95,14.9438125 C10.95,14.9438125 10.99375,14.90625 10.96875,14.8500625 C7.98125,8.35625 3.9,3.4313125 3.9,3.4313125 C3.9,3.4313125 1.6750625,5.53125 1.8375,7.63125" id="path-9"></path>
        <path d="M2.3125,16.75 C3.1625,18.25625 4.5875,19.4249375 6.075,19.0625 C7.1,18.80625 9.425,17.1938125 10.1875,16.6500625 C10.24375,16.59375 10.225,16.55625 10.225,16.55625 C10.20625,16.4875 10.125,16.4875 10.125,16.4875 L2.3125,16.75 Z" id="path-11"></path>
        <path d="M0.44375,13.2625 C1.2875,15.04375 2.90625,15.5875 2.90625,15.5875 C3.65625,15.89375 4.4,15.9125625 4.4,15.9125625 C4.51875,15.93125 9.0438125,15.9125625 10.25625,15.90625 C10.30625,15.90625 10.3375,15.85625 10.3375,15.85625 C10.375,15.79375 10.30625,15.7375 10.30625,15.7375 C6.875,13.43125 0.225,9.89375 0.225,9.89375 C-0.375,11.7563125 0.44375,13.2625 0.44375,13.2625" id="path-13"></path>
        <path d="M10.8109375,0.06875 C10.43525,0.11875 9.6,0.30625 9.6,0.30625 C7.5311875,0.8375625 7.04375,2.70625 7.04375,2.70625 C6.66875,3.88125 7.05625,5.1750625 7.05625,5.1750625 C7.74375,8.225 11.14375,13.2374375 11.875,14.2875625 C11.925,14.3375625 11.96875,14.31875 11.96875,14.31875 C12.05,14.29375 12.04375,14.21875 12.04375,14.21875 C13.139,3.320875 10.982,0.2248125 10.86725,0.06875 L10.8109375,0.06875 Z" id="path-15"></path>
        <path d="M13.38125,14.2375 C13.39375,14.30625 13.44375,14.325 13.44375,14.325 C13.51875,14.35625 13.5561875,14.28125 13.5561875,14.28125 C14.30625,13.2 17.68125,8.21875 18.36875,5.18125 C18.36875,5.18125 18.74375,3.7125625 18.38125,2.7125 C18.38125,2.7125 17.86875,0.8125 15.8,0.3125 C15.8,0.3125 15.20625,0.1625 14.56875,0.075 C14.565375,0.081125 12.258625,3.0606875 13.38125,14.2375" id="path-17"></path>
        <path d="M15.20625,16.5499375 C15.20625,16.5499375 15.1875,16.61875 15.2375,16.65625 C15.9875,17.1875 18.25,18.76875 19.3436875,19.075 C19.3436875,19.075 21.35775,19.7610625 23.1125,16.766875 L23.1125,16.7560625 L15.29375,16.4875 C15.29375,16.4875 15.225,16.49375 15.20625,16.5499375" id="path-19"></path>
        <path d="M25.1828125,9.8813125 C24.882,10.048 18.475,13.4794375 15.11875,15.73125 C15.11875,15.73125 15.05625,15.775 15.08125,15.84375 C15.08125,15.84375 15.1125625,15.9 15.1625,15.9 C16.39375,15.9 21.04375,15.90625 21.1625,15.8875 C21.1625,15.8875 21.7625,15.8625 22.50625,15.58125 C22.50625,15.58125 24.1625,15.05625 25.0188125,13.1875 C25.0188125,13.1875 25.78575,11.666125 25.195875,9.8813125 L25.1828125,9.8813125 Z" id="path-21"></path>
        <path d="M14.46875,14.81875 C14.46875,14.81875 14.4375,14.89375 14.49375,14.9438125 C14.49375,14.9438125 14.5500625,14.98125 14.6,14.95 C15.71875,14.39375 20.375,12.0375625 22.30625,10.16875 C22.30625,10.16875 23.525,9.19375 23.59375,7.625 C23.73125,5.44375 21.53125,3.4313125 21.53125,3.4313125 C21.53125,3.4313125 17.45625,8.3375 14.46875,14.81875" id="path-23"></path>
    </defs>
    <g id="最终版本-1031" stroke="none" stroke-width="1" fill="none" fill-rule="evenodd">
        <g id="导航中英文logo" transform="translate(-66.000000, -20.000000)">
            <g id="Group-4" transform="translate(67.000000, 26.000000)">
                <g id="Group-2">
                    <g id="Group-18" transform="translate(0.969059, 0.017077)">
                        <g id="Group-36">
                            <g id="XMLID_16_" fill-rule="nonzero">
                                <path d="M10.8475274,15.0003342 C10.8475274,15.0003342 10.9093407,14.9381684 10.8475274,14.8760027 C7.8804909,8.41076203 3.80081566,3.4375 3.80081566,3.4375 C3.80081566,3.4375 1.57553825,5.55113636 1.76097804,7.66477273 C1.8227913,9.28108289 3.05905652,10.2135695 3.05905652,10.2135695 C4.97526762,12.0785428 9.67307548,14.503008 10.7857142,15.0625 C10.7239009,15.0625 10.7857142,15.0625 10.8475274,15.0003342 Z" id="XMLID_26_" fill="url(#radialGradient-1)"></path>
                                <path d="M10.125,16.5638099 C10.125,16.5 10.0019531,16.5 10.0019531,16.5 L2.25,16.7552394 C3.11132813,18.286676 4.52636719,19.4990633 6.00292969,19.1162041 C7.04882813,18.8609647 9.32519531,17.2019084 10.0634766,16.6276197 C10.125,16.5638099 10.125,16.5638099 10.125,16.5638099 Z" id="XMLID_25_" fill="url(#radialGradient-2)"></path>
                                <path d="M10.2850919,15.9375 C10.3467602,15.875 10.2850919,15.8125 10.2850919,15.8125 C6.89333553,13.5 0.233159456,9.875 0.233159456,9.875 C-0.383523514,11.75 0.418164347,13.3125 0.418164347,13.3125 C1.28152051,15.125 2.88489623,15.6875 2.88489623,15.6875 C3.62491579,16 4.36493536,16 4.36493536,16 C4.48827195,16 8.99005763,16 10.1617553,16 C10.2850919,16 10.2850919,15.9375 10.2850919,15.9375 Z" id="XMLID_24_" fill="url(#radialGradient-3)"></path>
                                <path d="M10.809545,0 C10.5005493,0 9.57356228,0.248922414 9.57356228,0.248922414 C7.53419079,0.808997845 7.0397977,2.67591595 7.0397977,2.67591595 C6.66900288,3.85829741 7.0397977,5.16514009 7.0397977,5.16514009 C7.7195882,8.21443966 11.1185407,13.3173491 11.8601303,14.3752694 C11.9219295,14.4375 11.9219295,14.4375 11.9219295,14.4375 C11.9837286,14.4375 11.9837286,14.3130388 11.9837286,14.3130388 C13.1579122,2.98706897 10.809545,0 10.809545,0 Z" id="XMLID_23_" fill="url(#radialGradient-4)"></path>
                                <path d="M13.364409,14.3125 C13.425777,14.3125 13.487145,14.2505411 13.487145,14.2505411 C14.2235615,13.1972403 17.5988035,8.17857143 18.2738519,5.14258658 C18.2738519,5.14258658 18.6420601,3.65557359 18.2738519,2.6642316 C18.2738519,2.6642316 17.7829076,0.743506494 15.6963944,0.247835498 C15.6963944,0.247835498 15.082714,0.123917749 14.4690336,0 C14.4690336,0 12.1984163,2.97402597 13.3030409,14.1885823 C13.3030409,14.3125 13.364409,14.3125 13.364409,14.3125 Z" id="XMLID_22_" fill="url(#radialGradient-5)"></path>
                                <path d="M15.2495079,16.5 C15.2495079,16.5 15.1875,16.5 15.1875,16.5624185 C15.1875,16.5624185 15.1875,16.624837 15.1875,16.6872555 C15.9315945,17.2490221 18.2258858,18.8094848 19.2800197,19.1215773 C19.2800197,19.1215773 21.3262795,19.8081809 23.0625,16.749674 L15.2495079,16.5 Z" id="XMLID_21_" fill="url(#radialGradient-6)"></path>
                                <path d="M25.2287462,9.875 C25.2287462,9.875 18.5962257,13.4375 15.1869862,15.8125 C15.1869862,15.8125 15.125,15.875 15.125,15.9375 C15.125,15.9375 15.1869862,16 15.1869862,16 C16.4267096,16 21.0756726,16 21.199645,16 C21.199645,16 21.8195067,16 22.5633408,15.6875 C22.5633408,15.6875 24.2369674,15.1875 25.1047739,13.25 C25.0427877,13.25 25.7866218,11.6875 25.2287462,9.875 Z" id="XMLID_20_" fill="url(#radialGradient-7)"></path>
                                <path d="M14.4649903,14.9724374 C14.4649903,14.9724374 14.5268433,15.0344532 14.5886964,14.9724374 C15.7020519,14.4142953 20.341033,12.0576952 22.2584786,10.1972214 C22.2584786,10.1972214 23.4955402,9.20496871 23.5573933,7.6545739 C23.6810995,5.48402116 21.5162416,3.4375 21.5162416,3.4375 C21.5162416,3.4375 17.4339382,8.39876341 14.4649903,14.8484058 C14.4649903,14.8484058 14.4031372,14.9724374 14.4649903,14.9724374 Z" id="XMLID_19_" fill="url(#radialGradient-8)"></path>
                            </g>
                            <mask id="mask-10" fill="white">
                                <use xlink:href="#path-9"></use>
                            </mask>
                            <g id="Clip-13"></g>
                            <mask id="mask-12" fill="white">
                                <use xlink:href="#path-11"></use>
                            </mask>
                            <g id="Clip-16"></g>
                            <mask id="mask-14" fill="white">
                                <use xlink:href="#path-13"></use>
                            </mask>
                            <g id="Clip-19"></g>
                            <mask id="mask-16" fill="white">
                                <use xlink:href="#path-15"></use>
                            </mask>
                            <g id="Clip-22"></g>
                            <mask id="mask-18" fill="white">
                                <use xlink:href="#path-17"></use>
                            </mask>
                            <g id="Clip-25"></g>
                            <mask id="mask-20" fill="white">
                                <use xlink:href="#path-19"></use>
                            </mask>
                            <g id="Clip-28"></g>
                            <mask id="mask-22" fill="white">
                                <use xlink:href="#path-21"></use>
                            </mask>
                            <g id="Clip-31"></g>
                            <mask id="mask-24" fill="white">
                                <use xlink:href="#path-23"></use>
                            </mask>
                            <g id="Clip-34"></g>
                        </g>
                    </g>
                    <path d="M5.0257702,26.9765625 L4.02772332,26.9765625 L4.02772332,24.9086914 L2.00086785,24.9086914 L2.00086785,26.9765625 L1.00282098,26.9765625 L1.00282098,22 L2.00086785,22 L2.00086785,24.1396484 L4.02772332,24.1396484 L4.02772332,22 L5.0257702,22 L5.0257702,26.9765625 Z M9.88612176,22 L9.88612176,25.2573242 C9.88612176,25.8178739 9.70041398,26.2565088 9.32899285,26.5732422 C8.95757172,26.8899755 8.47564295,27.0483398 7.88319207,27.0483398 C7.29301985,27.0483398 6.81393935,26.8899755 6.44593621,26.5732422 C6.07793307,26.2565088 5.89393426,25.8178739 5.89393426,25.2573242 L5.89393426,22 L6.8953991,22 L6.8953991,25.2573242 C6.8953991,25.5900082 6.9842654,25.8440746 7.16200066,26.0195312 C7.33973593,26.1949879 7.58013066,26.2827148 7.88319207,26.2827148 C8.1908108,26.2827148 8.43462346,26.1949879 8.61463738,26.0195312 C8.7946513,25.8440746 8.88465691,25.5900082 8.88465691,25.2573242 L8.88465691,22 L9.88612176,22 Z M13.3451061,25.9033203 L11.7318249,25.9033203 L11.3968639,26.9765625 L10.3543835,26.9765625 L12.0326061,22 L13.0545788,22 L14.7259655,26.9765625 L13.683485,26.9765625 L13.3451061,25.9033203 Z M11.9779186,25.1206055 L13.1024304,25.1206055 L12.5521374,23.3671875 L12.5316296,23.3671875 L11.9779186,25.1206055 Z M19.1317272,25.3769531 L19.152235,25.3769531 L19.811903,22 L20.8407116,22 L19.6786022,26.9765625 L18.7523327,26.9765625 L17.8363171,23.6987305 L17.8158093,23.6987305 L16.9032116,26.9765625 L15.9769421,26.9765625 L14.8148327,22 L15.8436413,22 L16.5067272,25.3735352 L16.527235,25.3735352 L17.4227429,22 L18.2293835,22 L19.1317272,25.3769531 Z M24.2142468,24.7890625 L22.3685436,24.7890625 L22.3685436,26.2109375 L24.5628796,26.2109375 L24.5628796,26.9765625 L21.3704968,26.9765625 L21.3704968,22 L24.5560436,22 L24.5560436,22.769043 L22.3685436,22.769043 L22.3685436,24.0200195 L24.2142468,24.0200195 L24.2142468,24.7890625 Z M26.0291882,26.9765625 L25.0311413,26.9765625 L25.0311413,22 L26.0291882,22 L26.0291882,26.9765625 Z" id="HUAWEI-Copy-2" fill="#FFFFFF"></path>
                </g>
                <g id="Group" transform="translate(42.000000, 7.022630)" fill="#FFFFFF">
                    <path d="M4.95727143,6.08744286 C4.80241429,5.62401429 4.60955714,5.16058571 4.37784286,4.69715714 C5.4587,4.34944286 6.42441429,4.02201429 7.27441429,3.71215714 L7.27441429,0.236442857 L8.83855714,0.236442857 L8.83855714,3.01715714 C10.0351286,2.47687143 11.2515571,1.76258571 12.4881286,0.873728571 L13.4149857,1.97444286 C12.0247,2.9403 10.4985571,3.80915714 8.83855714,4.5813 L8.83855714,5.2763 C8.79955714,5.97172857 9.14727143,6.3003 9.88127143,6.2613 L11.0978429,6.2613 C11.7151286,6.3003 12.1015571,6.02944286 12.2564143,5.45015714 C12.3332714,5.10258571 12.3912714,4.60115714 12.4301286,3.94401429 C12.9705571,4.13772857 13.4729857,4.29172857 13.9364143,4.40744286 C13.8205571,5.10258571 13.7047,5.70201429 13.5888429,6.2033 C13.3949857,7.16915714 12.6809857,7.63258571 11.4454143,7.59358571 L9.30198571,7.59358571 C7.91155714,7.67158571 7.23555714,7.0143 7.27441429,5.62401429 L7.27441429,5.21858571 C6.57912857,5.48915714 5.80627143,5.77872857 4.95727143,6.08744286 Z M0.148985714,10.7218714 L0.148985714,9.27358571 L6.2317,9.27358571 L6.2317,7.76744286 L7.79584286,7.76744286 L7.79584286,9.27358571 L13.9364143,9.27358571 L13.9364143,10.7218714 L7.79584286,10.7218714 L7.79584286,13.9080143 L6.2317,13.9080143 L6.2317,10.7218714 L0.148985714,10.7218714 Z M0.612414286,5.68201429 C0.4967,5.18044286 0.302842857,4.63901429 0.0331285714,4.05987143 C1.57727143,3.05615714 2.8907,1.70472857 3.97227143,0.00487142857 L5.47855714,0.584157143 C4.97612857,1.31815714 4.45484286,2.01344286 3.91441429,2.66944286 L3.91441429,7.9413 L2.35041429,7.9413 L2.35041429,4.23358571 C1.84798571,4.73615714 1.2687,5.21858571 0.612414286,5.68201429 Z" id="Fill-170"></path>
                    <path d="M24.3870286,9.96884286 C24.0003143,9.50541429 23.4401714,8.88798571 22.7068857,8.11498571 C22.4751714,7.84541429 22.3014571,7.65155714 22.1856,7.53584286 L23.2863143,6.60898571 C24.1353143,7.38198571 24.9083143,8.11498571 25.6034571,8.81012857 L24.3870286,9.96884286 Z M18.5360286,3.2487 C17.9566,2.51555714 17.2996,1.8007 16.5663143,1.10527143 L17.7248857,0.178414286 C17.9566,0.372128571 18.3043143,0.699842857 18.7677429,1.16341429 C19.2311714,1.5887 19.5787429,1.91641429 19.8104571,2.14827143 L18.5360286,3.2487 Z M16.5663143,13.9659857 C16.4884571,13.8881286 16.3926,13.7722714 16.2767429,13.6184143 C15.8901714,13.1549857 15.5816,12.8072714 15.3498857,12.5757 C18.6318857,10.6448429 20.3698857,8.11498571 20.5634571,4.9867 L15.6974571,4.9867 L15.6974571,3.48055714 L20.7373143,3.48055714 C20.8533143,2.36084286 20.9111714,1.20241429 20.9111714,0.00484285714 L22.6490286,0.00484285714 C22.5711714,1.5887 22.4943143,2.74741429 22.4173143,3.48055714 L28.5000286,3.48055714 C28.4610286,4.13784286 28.4031714,5.29627143 28.3261714,6.95627143 C28.2483143,8.81012857 28.1904571,10.0847 28.1523143,10.7797 C28.1134571,12.6334143 27.1676,13.5604143 25.3137429,13.5604143 C24.4250286,13.5984143 23.4790286,13.6184143 22.4751714,13.6184143 C22.3594571,13.0001286 22.2236,12.4595571 22.0697429,11.9964143 C22.9967429,12.0741286 23.8656,12.1122714 24.6766,12.1122714 C25.9121714,12.1899857 26.5304571,11.5908429 26.5304571,10.3162714 C26.5304571,9.96884286 26.5493143,9.38927143 26.5883143,8.57855714 C26.6653143,6.91841429 26.7231714,5.7207 26.7621714,4.9867 L22.3014571,4.9867 C21.9918857,8.81012857 20.0801714,11.8035571 16.5663143,13.9659857 Z" id="Fill-171"></path>
                    <path d="M31.7672857,0.931714286 L43.0637143,0.931714286 L43.0637143,2.49557143 L31.7672857,2.49557143 L31.7672857,0.931714286 Z M30.5508571,6.78242857 L30.5508571,5.21857143 L44.3961429,5.21857143 L44.3961429,6.78242857 L37.4444286,6.78242857 C36.4787143,8.135 35.2811429,9.64114286 33.8528571,11.3011429 C35.1274286,11.3011429 37.3477143,11.2242857 40.5147143,11.0695714 C39.8965714,10.1812857 39.2594286,9.37057143 38.603,8.63628571 L39.9355714,7.82542857 C40.5147143,8.48257143 41.4028571,9.56314286 42.6002857,11.0695714 C43.2175714,11.8425714 43.662,12.3628571 43.9327143,12.6334286 L42.4844286,13.5602857 L41.6154286,12.4018571 C40.3021429,12.4397143 38.2165714,12.5367143 35.3591429,12.6914286 C34.7408571,12.7295714 34.2774286,12.7495714 33.9687143,12.7495714 C33.2345714,12.7872857 32.5972857,12.8652857 32.057,12.9811429 L31.3038571,11.417 C31.8054286,11.1472857 32.3077143,10.7218571 32.8101429,10.1427143 C33.737,9.06185714 34.567,7.94128571 35.301,6.78242857 L30.5508571,6.78242857 Z" id="Fill-172"></path>
                </g>
            </g>
        </g>
    </g>
</svg>